<svg width="624" height="388" viewBox="0 0 624 388" fill="none" xmlns="http://www.w3.org/2000/svg">
<mask id="mask0_2_156" style="mask-type:luminance" maskUnits="userSpaceOnUse" x="353" y="0" width="271" height="388">
<path d="M353 0H623.667V387.453H353V0Z" fill="white"/>
</mask>
<path d="M602.13 0.21875H373.938C362.495 0.21875 353.224 9.48958 353.224 20.9323V366.745C353.224 378.182 362.495 387.453 373.938 387.453H602.13C613.568 387.453 622.844 378.182 622.844 366.745V20.9323C622.844 9.48958 613.568 0.21875 602.13 0.21875Z" fill="#41403F"/>
<path d="M582.313 21.6875H393.75C382.313 21.6875 373.042 30.9583 373.042 42.401V328.125C373.042 339.562 382.313 348.839 393.75 348.839H582.313C593.75 348.839 603.026 339.562 603.026 328.125V42.401C603.026 30.9583 593.75 21.6875 582.313 21.6875Z" fill="#FCEEDE"/>
<path d="M501.484 360.094H474.578C472.526 360.094 470.859 361.76 470.859 363.813V372.865C470.859 374.922 472.526 376.589 474.578 376.589H501.484C503.542 376.589 505.208 374.922 505.208 372.865V363.813C505.208 361.76 503.542 360.094 501.484 360.094Z" fill="#6C6E70"/>
<path d="M442.464 101.552V208.391C435.089 205.495 426.01 204.849 416.766 207.125C397.302 211.917 384.49 227.833 388.141 242.682C391.797 257.531 410.536 265.687 430 260.896C447.099 256.687 459.068 243.885 459.245 230.771V136.63L549.714 119.375V187.937C542.333 185.047 533.255 184.401 524.016 186.672C504.552 191.464 491.734 207.38 495.385 222.229C499.042 237.078 517.781 245.234 537.245 240.443C554.349 236.234 566.313 223.432 566.49 210.318H566.495V77.901" fill="#B74C0F"/>
<path d="M248.906 0H20.7083C9.27083 0 0 9.27083 0 20.7083V366.521C0 377.958 9.27083 387.234 20.7083 387.234H248.906C260.344 387.234 269.615 377.958 269.615 366.521V20.7083C269.615 9.27083 260.344 0 248.906 0Z" fill="#41403F"/>
<path d="M229.088 21.4688H40.526C29.0885 21.4688 19.8176 30.7396 19.8176 42.1771V327.906C19.8176 339.344 29.0885 348.62 40.526 348.62H229.088C240.526 348.62 249.802 339.344 249.802 327.906V42.1771C249.802 30.7396 240.526 21.4688 229.088 21.4688Z" fill="#FCEEDE"/>
<path d="M148.26 359.875H121.354C119.302 359.875 117.635 361.542 117.635 363.594V372.646C117.635 374.703 119.302 376.365 121.354 376.365H148.26C150.318 376.365 151.979 374.703 151.979 372.646V363.594C151.979 361.542 150.318 359.875 148.26 359.875Z" fill="#6C6E70"/>
<path d="M180.755 60.8802H52.3177C49.0208 60.8802 46.3438 58.2031 46.3438 54.901C46.3438 51.6042 49.0208 48.9271 52.3177 48.9271H180.755C184.057 48.9271 186.734 51.6042 186.734 54.901C186.734 58.2031 184.057 60.8802 180.755 60.8802Z" fill="#6C6E70"/>
<path d="M180.755 96.9479H52.3177C49.0208 96.9479 46.3438 94.2708 46.3438 90.9688C46.3438 87.6719 49.0208 84.9948 52.3177 84.9948H180.755C184.057 84.9948 186.734 87.6719 186.734 90.9688C186.734 94.2708 184.057 96.9479 180.755 96.9479Z" fill="#6C6E70"/>
<path d="M214.229 133.016H52.3177C49.0208 133.016 46.3438 130.344 46.3438 127.042C46.3438 123.74 49.0208 121.063 52.3177 121.063H214.229C217.526 121.063 220.203 123.74 220.203 127.042C220.203 130.344 217.526 133.016 214.229 133.016Z" fill="#6C6E70"/>
<path d="M214.229 169.083H52.3177C49.0208 169.083 46.3438 166.411 46.3438 163.109C46.3438 159.807 49.0208 157.13 52.3177 157.13H214.229C217.526 157.13 220.203 159.807 220.203 163.109C220.203 166.411 217.526 169.083 214.229 169.083Z" fill="#6C6E70"/>
<path d="M214.229 205.151H52.3177C49.0208 205.151 46.3438 202.479 46.3438 199.177C46.3438 195.875 49.0208 193.198 52.3177 193.198H214.229C217.526 193.198 220.203 195.875 220.203 199.177C220.203 202.479 217.526 205.151 214.229 205.151Z" fill="#6C6E70"/>
<path d="M214.229 241.224H52.3177C49.0208 241.224 46.3438 238.547 46.3438 235.245C46.3438 231.943 49.0208 229.266 52.3177 229.266H214.229C217.526 229.266 220.203 231.943 220.203 235.245C220.203 238.547 217.526 241.224 214.229 241.224Z" fill="#6C6E70"/>
<path d="M214.229 277.292H52.3177C49.0208 277.292 46.3438 274.615 46.3438 271.313C46.3438 268.016 49.0208 265.339 52.3177 265.339H214.229C217.526 265.339 220.203 268.016 220.203 271.313C220.203 274.615 217.526 277.292 214.229 277.292Z" fill="#6C6E70"/>
</svg>
