<svg width="519" height="401" viewBox="0 0 519 401" fill="none" xmlns="http://www.w3.org/2000/svg">
<path d="M150.792 115.875V118.521C150.792 136.552 165.458 151.219 183.484 151.219H356.339C334.844 120.563 347.698 94.6771 355.953 83.1719H183.484C165.458 83.1719 150.792 97.8437 150.792 115.875Z" fill="#D4831E"/>
<path d="M163.536 123.953C163.536 105.922 178.219 91.2552 196.245 91.2552H351.005C352.646 88.0833 354.38 85.3646 355.953 83.1719H183.484C165.458 83.1719 150.792 97.8437 150.792 115.875V118.521C150.792 132.839 160.047 145.042 172.885 149.453C167.109 143.552 163.536 135.484 163.536 126.599" fill="#B06C18"/>
<mask id="mask0_2_114" style="mask-type:luminance" maskUnits="userSpaceOnUse" x="138" y="69" width="243" height="332">
<path d="M138.005 69.2552H380.672V400.708H138.005V69.2552Z" fill="white"/>
</mask>
<path d="M374.073 151.219H183.484C165.458 151.219 150.776 136.552 150.776 118.521V115.875C150.776 97.8438 165.458 83.1719 183.484 83.1719H374.073C377.594 83.1719 380.443 80.3177 380.443 76.7917C380.443 73.2709 377.594 70.4115 374.073 70.4115H183.484C171.339 70.4115 159.927 75.1407 151.339 83.7292C142.75 92.3177 138.031 103.729 138.031 115.875V353.422C138.031 379.537 159.193 400.708 185.313 400.708H365.271C373.646 400.708 380.443 393.912 380.443 385.531V157.599C380.443 154.078 377.594 151.219 374.073 151.219Z" fill="#B74C0F"/>
<path d="M201.766 259.63H347.229V193.917H201.766V259.63Z" fill="#FCEEDE"/>
<path d="M428.938 174.188H401.484C401.484 154.328 397.714 135.068 390.26 116.948C383.073 99.4688 372.792 83.7708 359.688 70.2917C346.62 56.8438 331.406 46.2917 314.474 38.9219C296.979 31.3125 278.391 27.4531 259.234 27.4531C240.073 27.4531 221.484 31.3125 204.005 38.9219C187.073 46.2917 171.859 56.8438 158.792 70.2917C145.688 83.7708 135.406 99.4688 128.203 116.948C120.76 135.068 116.984 154.328 116.984 174.188H89.5312C89.5312 150.729 94 127.958 102.818 106.51C111.344 85.776 123.552 67.1563 139.099 51.1563C154.672 35.1354 172.833 22.5469 193.047 13.75C214.021 4.625 236.286 0 259.234 0C282.193 0 304.458 4.625 325.432 13.75C345.646 22.5469 363.792 35.1354 379.38 51.1563C394.927 67.1563 407.125 85.776 415.656 106.51C424.474 127.958 428.938 150.729 428.938 174.188Z" fill="#D4831E"/>
<path d="M416.51 130.302H404.083C396.297 130.302 389.99 136.615 389.99 144.396V283.896C389.99 291.682 396.297 297.995 404.083 297.995H416.51C424.297 297.995 430.62 291.682 430.62 283.896V144.396C430.62 136.615 424.297 130.302 416.51 130.302Z" fill="#B74C0F"/>
<path d="M449.63 141.328C441.844 141.328 435.536 147.635 435.536 155.422V272.87C435.536 280.656 441.844 286.969 449.63 286.969C487.776 286.969 518.698 256.052 518.698 217.906V210.391C518.698 172.245 487.776 141.328 449.63 141.328Z" fill="#B74C0F"/>
<path d="M102.177 130.302H114.604C122.391 130.302 128.698 136.615 128.698 144.396V283.896C128.698 291.682 122.391 297.995 114.604 297.995H102.177C94.3906 297.995 88.0781 291.682 88.0781 283.896V144.396C88.0781 136.615 94.3906 130.302 102.177 130.302Z" fill="#B74C0F"/>
<path d="M69.0625 141.328C76.849 141.328 83.1563 147.635 83.1563 155.422V272.87C83.1563 280.656 76.849 286.969 69.0625 286.969C30.9167 286.969 0 256.052 0 217.906V210.391C0 172.245 30.9167 141.328 69.0625 141.328Z" fill="#B74C0F"/>
</svg>
